<svg width="110" height="102" viewBox="0 0 110 102" fill="none" xmlns="http://www.w3.org/2000/svg">
<path fill-rule="evenodd" clip-rule="evenodd" d="M80.045 71.0326C79.6193 71.0524 79.0066 71.1105 78.3675 70.8545C77.9398 70.6832 77.609 70.3029 77.1591 70.0947C76.4699 69.7756 75.6777 69.7363 75.0231 69.4383C74.419 69.1633 73.9445 68.8067 73.464 68.5567C72.3348 68.228 71.1822 68.8613 70.892 69.9702C70.602 71.0793 71.2832 72.2464 72.4127 72.5753C72.8115 72.6077 73.2571 72.5622 73.723 72.7206C74.3415 72.9309 74.8798 73.4281 75.5204 73.702C76.2237 74.0027 76.9815 74.0733 77.6101 74.3289C78.4714 74.679 79.1648 75.0382 79.7511 75.2004C80.9143 75.3232 81.9246 74.4891 82.0057 73.339C82.0868 72.1889 81.2082 71.1554 80.045 71.0326Z" fill="#202054"/>
<path fill-rule="evenodd" clip-rule="evenodd" d="M33.4552 35.3428C33.0295 35.3626 32.4168 35.4207 31.7777 35.1647C31.35 34.9934 31.0191 34.6131 30.5693 34.4049C29.88 34.0858 29.0879 34.0465 28.4333 33.7485C27.8291 33.4735 27.3547 33.1169 26.8741 32.8669C25.7449 32.5382 24.5924 33.1715 24.3021 34.2804C24.0121 35.3895 24.6934 36.5566 25.8228 36.8855C26.2217 36.9179 26.6673 36.8724 27.1331 37.0308C27.7516 37.2411 28.29 37.7383 28.9305 38.0122C29.6339 38.313 30.3917 38.3835 31.0203 38.6391C31.8816 38.9892 32.575 39.3484 33.1613 39.5106C34.3245 39.6334 35.3347 38.7993 35.4158 37.6492C35.4969 36.4991 34.6184 35.4656 33.4552 35.3428Z" fill="#202054"/>
<path fill-rule="evenodd" clip-rule="evenodd" d="M81.3688 47.9184C81.01 48.1483 80.5085 48.505 79.827 48.6029C79.3709 48.6684 78.8943 48.5045 78.4006 48.549C77.6441 48.6173 76.9385 48.9794 76.2226 49.0487C75.5618 49.1125 74.9727 49.0409 74.4315 49.0647C73.2892 49.3446 72.6078 50.4694 72.9108 51.5748C73.2142 52.6803 74.3878 53.3505 75.5303 53.0706C75.8919 52.8992 76.2551 52.637 76.7377 52.5413C77.3786 52.4142 78.0933 52.5755 78.7851 52.4925C79.5445 52.4013 80.2361 52.0834 80.9083 51.9905C81.8292 51.8631 82.6093 51.8274 83.1981 51.6747C84.2669 51.1995 84.7248 49.972 84.22 48.9355C83.7151 47.8989 82.4376 47.4431 81.3688 47.9184Z" fill="#202054"/>
<path fill-rule="evenodd" clip-rule="evenodd" d="M67.3579 40.2493C67.3382 39.8236 67.28 39.2109 67.536 38.5718C67.7074 38.1441 68.0876 37.8132 68.2958 37.3634C68.6149 36.6741 68.6542 35.882 68.9522 35.2274C69.2272 34.6232 69.5838 34.1488 69.8338 33.6683C70.1625 32.5391 69.5292 31.3865 68.4203 31.0963C67.3113 30.8063 66.1441 31.4875 65.8152 32.6169C65.7828 33.0158 65.8283 33.4614 65.6699 33.9272C65.4596 34.5458 64.9624 35.0841 64.6885 35.7247C64.3878 36.428 64.3172 37.1858 64.0616 37.8144C63.7115 38.6757 63.3523 39.3691 63.1901 39.9554C63.0673 41.1186 63.9014 42.1288 65.0515 42.2099C66.2016 42.291 67.2351 41.4125 67.3579 40.2493Z" fill="#202054"/>
<path fill-rule="evenodd" clip-rule="evenodd" d="M52.112 29.9368C51.797 29.6498 51.3227 29.2577 51.0518 28.6247C50.8705 28.2011 50.9054 27.6983 50.7346 27.233C50.4728 26.52 49.9405 25.9321 49.6883 25.2585C49.4556 24.6368 49.3723 24.0492 49.2092 23.5326C48.6432 22.5017 47.3804 22.1346 46.3911 22.7134C45.4018 23.2926 45.0582 24.5996 45.6243 25.6308C45.8834 25.9357 46.2306 26.2187 46.448 26.6601C46.7367 27.2462 46.7658 27.9783 47.0251 28.625C47.3097 29.335 47.7957 29.9207 48.0595 30.5459C48.4209 31.4026 48.6572 32.1468 48.9571 32.6761C49.6928 33.5854 50.9969 33.71 51.8675 32.9541C52.7381 32.1982 52.8477 30.8462 52.112 29.9368Z" fill="#202054"/>
</svg>
