<svg width="13" height="17" viewBox="0 0 13 17" fill="none" xmlns="http://www.w3.org/2000/svg">
<path id="Vector" fill-rule="evenodd" clip-rule="evenodd" d="M9.0322 0.952356C9.219 0.884495 9.42511 0.893558 9.60524 0.977554C9.78537 1.06155 9.92479 1.21361 9.99288 1.40033L12.895 9.37389C12.9328 9.46726 12.9514 9.56728 12.9496 9.66798C12.9479 9.76869 12.9259 9.86801 12.885 9.96003C12.844 10.052 12.7849 10.1349 12.7113 10.2036C12.6376 10.2723 12.5509 10.3254 12.4563 10.3599C12.3616 10.3943 12.261 10.4094 12.1604 10.4041C12.0598 10.3988 11.9613 10.3733 11.8708 10.3291C11.7803 10.285 11.6996 10.223 11.6336 10.147C11.5675 10.071 11.5174 9.9824 11.4864 9.8866L9.20334 3.61407L3.20639 16.4746C3.12233 16.6549 2.97009 16.7943 2.78317 16.8624C2.59626 16.9304 2.38997 16.9214 2.2097 16.8373C2.02942 16.7533 1.88992 16.601 1.82189 16.4141C1.75386 16.2272 1.76286 16.0209 1.84693 15.8406L7.84388 2.98014L1.57135 5.26315C1.47798 5.30092 1.37796 5.31949 1.27726 5.31776C1.17655 5.31603 1.07723 5.29404 0.98521 5.25309C0.893191 5.21214 0.810363 5.15308 0.741666 5.07942C0.672969 5.00577 0.619811 4.91903 0.585364 4.82439C0.550916 4.72974 0.535884 4.62913 0.541164 4.52855C0.546445 4.42797 0.57193 4.32948 0.616099 4.23897C0.660269 4.14845 0.722217 4.06776 0.798249 4.0017C0.874281 3.93565 0.962838 3.88558 1.05864 3.85449L9.0322 0.952356Z" fill="white"/>
</svg>
