<svg width="48" height="70" viewBox="0 0 48 70" fill="none" xmlns="http://www.w3.org/2000/svg">
<path fill-rule="evenodd" clip-rule="evenodd" d="M42.3958 40.5826C42.7121 40.2184 43.1922 39.7099 43.4265 39.0126C43.5832 38.546 43.4958 38.0545 43.6371 37.549C43.8535 36.7743 44.3779 36.0566 44.5877 35.3235C44.7813 34.647 44.8149 34.0417 44.9426 33.4871C45.4605 32.3203 46.805 31.6395 47.9431 31.9681C49.0812 32.2969 49.5847 33.5112 49.0667 34.6783C48.8133 35.0464 48.4614 35.4146 48.2669 35.908C48.0087 36.563 48.0485 37.2986 47.8283 38.0066C47.5866 38.784 47.1126 39.488 46.8855 40.1758C46.5742 41.1182 46.3886 41.9176 46.1125 42.519C45.3973 43.6073 43.9839 44.0571 42.9582 43.5228C41.9326 42.9884 41.6805 41.671 42.3958 40.5826Z" fill="#2F2F8C"/>
<path fill-rule="evenodd" clip-rule="evenodd" d="M36.7441 26.0921C36.2875 26.065 35.6361 25.9955 34.8968 26.2478C34.4021 26.4166 33.9727 26.8012 33.4471 27.0076C32.6417 27.3237 31.7778 27.3512 31.0139 27.6463C30.3088 27.9186 29.7286 28.2767 29.1619 28.5253C27.8791 28.8442 26.7523 28.1763 26.6474 27.0345C26.5428 25.8925 27.4994 24.7066 28.7825 24.3875C29.2199 24.3607 29.6931 24.4145 30.2266 24.2595C30.935 24.0538 31.6108 23.5526 32.355 23.282C33.1721 22.9849 34.0048 22.9248 34.7326 22.6728C35.7299 22.3275 36.5473 21.9704 37.2117 21.8135C38.4926 21.7062 39.4277 22.5778 39.2987 23.7585C39.1696 24.9392 38.025 25.9849 36.7441 26.0921Z" fill="#2F2F8C"/>
<path fill-rule="evenodd" clip-rule="evenodd" d="M28.4668 10.2921C28.2158 9.96446 27.8812 9.47176 27.2479 9.18378C26.8241 8.99108 26.2738 9.0188 25.8029 8.83616C25.0813 8.55628 24.546 8.0009 23.8652 7.73148C23.2369 7.48285 22.6172 7.38798 22.0894 7.2125C21.0814 6.61547 20.9224 5.31462 21.7347 4.3094C22.5474 3.30422 24.0253 2.97287 25.0336 3.56994C25.3145 3.84053 25.555 4.2012 25.9912 4.43122C26.5705 4.73663 27.3567 4.77827 28.007 5.05451C28.721 5.35783 29.2628 5.86562 29.889 6.14614C30.7471 6.53052 31.5073 6.78486 32.023 7.10089C32.8677 7.86991 32.7566 9.20923 31.7752 10.0899C30.7938 10.9705 29.3114 11.0611 28.4668 10.2921Z" fill="#2F2F8C"/>
</svg>
